<svg width="264" height="419" viewBox="0 0 264 419" fill="none" xmlns="http://www.w3.org/2000/svg">
<g clip-path="url(#clip0_4_350)">
<path fill-rule="evenodd" clip-rule="evenodd" d="M277.903 449.548C277.903 456.114 272.58 461.437 266.014 461.437H-2.97164C-9.53768 461.437 -14.8605 456.114 -14.8605 449.548L-14.8605 343.291C-14.8605 336.725 -9.53768 331.402 -2.97164 331.402H113.002C116.945 331.402 120.632 329.448 122.844 326.184L138.042 303.76C140.254 300.497 143.94 298.542 147.883 298.542H263.811C270.377 298.542 275.7 303.865 275.7 310.431V330.301C275.7 330.909 276.193 331.402 276.802 331.402V331.402C277.41 331.402 277.903 331.895 277.903 332.504V449.548Z" fill="#04267C"/>
<path d="M243 326.5C247.142 326.5 250.5 323.142 250.5 319C250.5 314.858 247.142 311.5 243 311.5C238.858 311.5 235.5 314.858 235.5 319C235.5 323.142 238.858 326.5 243 326.5Z" stroke="#F9E757" stroke-width="1.5" stroke-miterlimit="10"/>
<path d="M235.93 316.5H250.07" stroke="#F9E757" stroke-width="1.5" stroke-linecap="round" stroke-linejoin="round"/>
<path d="M235.93 321.5H250.07" stroke="#F9E757" stroke-width="1.5" stroke-linecap="round" stroke-linejoin="round"/>
<path d="M243 326.297C244.726 326.297 246.125 323.03 246.125 319C246.125 314.97 244.726 311.703 243 311.703C241.274 311.703 239.875 314.97 239.875 319C239.875 323.03 241.274 326.297 243 326.297Z" stroke="#F9E757" stroke-width="1.5" stroke-miterlimit="10"/>
<path d="M149.534 314.548V323H147.798V314.548H149.534ZM152.134 314.548V315.912H145.238V314.548H152.134ZM155.368 323.116C154.88 323.116 154.443 323.039 154.056 322.884C153.669 322.725 153.34 322.507 153.069 322.228C152.802 321.949 152.597 321.626 152.454 321.258C152.31 320.887 152.239 320.492 152.239 320.074V319.842C152.239 319.366 152.307 318.931 152.442 318.536C152.577 318.141 152.771 317.799 153.023 317.508C153.278 317.218 153.588 316.996 153.951 316.841C154.315 316.682 154.725 316.603 155.182 316.603C155.627 316.603 156.022 316.676 156.366 316.823C156.711 316.97 156.999 317.179 157.231 317.45C157.467 317.721 157.645 318.046 157.765 318.426C157.885 318.801 157.945 319.219 157.945 319.679V320.376H152.953V319.262H156.302V319.134C156.302 318.902 156.26 318.695 156.175 318.513C156.093 318.327 155.97 318.18 155.803 318.071C155.637 317.963 155.424 317.909 155.165 317.909C154.944 317.909 154.754 317.957 154.596 318.054C154.437 318.151 154.307 318.286 154.207 318.46C154.11 318.635 154.036 318.84 153.986 319.076C153.94 319.308 153.916 319.563 153.916 319.842V320.074C153.916 320.326 153.951 320.558 154.021 320.771C154.095 320.984 154.197 321.168 154.329 321.322C154.464 321.477 154.627 321.597 154.816 321.682C155.01 321.767 155.228 321.81 155.472 321.81C155.774 321.81 156.055 321.752 156.314 321.636C156.577 321.516 156.804 321.336 156.993 321.096L157.806 321.978C157.674 322.168 157.494 322.35 157.266 322.524C157.042 322.698 156.771 322.841 156.453 322.954C156.136 323.062 155.774 323.116 155.368 323.116ZM161.492 321.81C161.697 321.81 161.879 321.771 162.038 321.694C162.197 321.613 162.32 321.5 162.409 321.357C162.502 321.21 162.551 321.038 162.555 320.84H164.128C164.124 321.282 164.006 321.674 163.774 322.019C163.541 322.36 163.23 322.628 162.839 322.826C162.448 323.019 162.011 323.116 161.527 323.116C161.039 323.116 160.614 323.035 160.25 322.872C159.89 322.71 159.59 322.485 159.35 322.199C159.11 321.909 158.93 321.572 158.81 321.189C158.69 320.802 158.63 320.388 158.63 319.947V319.778C158.63 319.333 158.69 318.919 158.81 318.536C158.93 318.149 159.11 317.812 159.35 317.526C159.59 317.236 159.89 317.009 160.25 316.847C160.61 316.684 161.032 316.603 161.515 316.603C162.03 316.603 162.481 316.701 162.868 316.899C163.259 317.096 163.565 317.379 163.785 317.746C164.01 318.11 164.124 318.542 164.128 319.041H162.555C162.551 318.832 162.506 318.642 162.421 318.472C162.34 318.302 162.22 318.166 162.061 318.066C161.906 317.961 161.715 317.909 161.486 317.909C161.243 317.909 161.043 317.961 160.888 318.066C160.734 318.166 160.614 318.306 160.529 318.484C160.443 318.658 160.383 318.857 160.349 319.082C160.318 319.302 160.302 319.534 160.302 319.778V319.947C160.302 320.19 160.318 320.424 160.349 320.649C160.38 320.873 160.438 321.073 160.523 321.247C160.612 321.421 160.734 321.558 160.888 321.659C161.043 321.76 161.244 321.81 161.492 321.81ZM166.728 314.083V323H165.057V314.083H166.728ZM166.49 319.639H166.032C166.036 319.202 166.094 318.799 166.206 318.431C166.318 318.06 166.479 317.739 166.688 317.468C166.897 317.193 167.146 316.98 167.437 316.829C167.731 316.678 168.056 316.603 168.412 316.603C168.721 316.603 169.002 316.647 169.254 316.736C169.509 316.821 169.728 316.961 169.91 317.154C170.095 317.344 170.239 317.594 170.339 317.903C170.44 318.213 170.49 318.588 170.49 319.029V323H168.807V319.018C168.807 318.739 168.766 318.52 168.685 318.362C168.607 318.199 168.493 318.085 168.342 318.019C168.195 317.95 168.013 317.915 167.797 317.915C167.557 317.915 167.351 317.959 167.181 318.048C167.015 318.137 166.881 318.261 166.781 318.42C166.68 318.575 166.606 318.756 166.56 318.965C166.514 319.174 166.49 319.399 166.49 319.639ZM176.864 321.659L178.548 314.548H179.488L179.703 315.732L177.909 323H176.899L176.864 321.659ZM175.999 314.548L177.392 321.659L177.276 323H176.15L174.275 314.548H175.999ZM181.183 321.63L182.559 314.548H184.283L182.414 323H181.288L181.183 321.63ZM180.016 314.548L181.711 321.688L181.665 323H180.655L178.849 315.726L179.082 314.548H180.016ZM184.672 319.923V319.801C184.672 319.341 184.738 318.917 184.869 318.53C185.001 318.139 185.192 317.801 185.444 317.514C185.696 317.228 186.005 317.005 186.373 316.847C186.741 316.684 187.162 316.603 187.638 316.603C188.114 316.603 188.538 316.684 188.91 316.847C189.281 317.005 189.593 317.228 189.844 317.514C190.1 317.801 190.293 318.139 190.425 318.53C190.556 318.917 190.622 319.341 190.622 319.801V319.923C190.622 320.38 190.556 320.804 190.425 321.195C190.293 321.582 190.1 321.92 189.844 322.211C189.593 322.497 189.283 322.719 188.916 322.878C188.548 323.037 188.126 323.116 187.65 323.116C187.174 323.116 186.75 323.037 186.379 322.878C186.011 322.719 185.699 322.497 185.444 322.211C185.192 321.92 185.001 321.582 184.869 321.195C184.738 320.804 184.672 320.38 184.672 319.923ZM186.344 319.801V319.923C186.344 320.186 186.367 320.432 186.414 320.661C186.46 320.889 186.533 321.09 186.634 321.264C186.739 321.435 186.874 321.568 187.04 321.665C187.207 321.762 187.41 321.81 187.65 321.81C187.882 321.81 188.082 321.762 188.248 321.665C188.414 321.568 188.548 321.435 188.648 321.264C188.749 321.09 188.823 320.889 188.869 320.661C188.919 320.432 188.945 320.186 188.945 319.923V319.801C188.945 319.546 188.919 319.306 188.869 319.082C188.823 318.853 188.747 318.652 188.643 318.478C188.542 318.3 188.409 318.16 188.242 318.06C188.076 317.959 187.874 317.909 187.638 317.909C187.402 317.909 187.201 317.959 187.035 318.06C186.872 318.16 186.739 318.3 186.634 318.478C186.533 318.652 186.46 318.853 186.414 319.082C186.367 319.306 186.344 319.546 186.344 319.801ZM193.322 318.089V323H191.65V316.719H193.223L193.322 318.089ZM195.214 316.678L195.185 318.228C195.104 318.217 195.005 318.207 194.889 318.199C194.777 318.188 194.674 318.182 194.581 318.182C194.345 318.182 194.14 318.213 193.966 318.275C193.796 318.333 193.652 318.42 193.536 318.536C193.424 318.652 193.339 318.793 193.281 318.96C193.227 319.126 193.196 319.316 193.188 319.529L192.851 319.424C192.851 319.018 192.892 318.644 192.973 318.304C193.055 317.959 193.173 317.659 193.327 317.404C193.486 317.148 193.68 316.951 193.908 316.812C194.136 316.672 194.397 316.603 194.692 316.603C194.784 316.603 194.879 316.611 194.976 316.626C195.073 316.638 195.152 316.655 195.214 316.678ZM197.768 314.083V323H196.091V314.083H197.768ZM202.859 321.63V314.083H204.543V323H203.028L202.859 321.63ZM198.889 319.935V319.813C198.889 319.333 198.943 318.898 199.051 318.507C199.16 318.112 199.318 317.773 199.527 317.491C199.736 317.208 199.994 316.99 200.299 316.835C200.605 316.68 200.953 316.603 201.344 316.603C201.712 316.603 202.033 316.68 202.308 316.835C202.587 316.99 202.823 317.21 203.016 317.497C203.213 317.779 203.372 318.114 203.492 318.501C203.612 318.884 203.699 319.304 203.753 319.761V320.028C203.699 320.465 203.612 320.871 203.492 321.247C203.372 321.622 203.213 321.951 203.016 322.234C202.823 322.512 202.587 322.729 202.308 322.884C202.029 323.039 201.704 323.116 201.333 323.116C200.942 323.116 200.593 323.037 200.288 322.878C199.986 322.719 199.73 322.497 199.521 322.211C199.316 321.924 199.16 321.587 199.051 321.2C198.943 320.813 198.889 320.392 198.889 319.935ZM200.561 319.813V319.935C200.561 320.194 200.58 320.436 200.619 320.661C200.661 320.885 200.729 321.084 200.822 321.258C200.919 321.429 201.042 321.562 201.193 321.659C201.348 321.752 201.536 321.798 201.756 321.798C202.043 321.798 202.279 321.734 202.465 321.607C202.65 321.475 202.792 321.295 202.888 321.067C202.989 320.839 203.047 320.575 203.063 320.277V319.517C203.051 319.273 203.016 319.054 202.958 318.861C202.904 318.664 202.823 318.495 202.714 318.356C202.61 318.217 202.478 318.108 202.32 318.031C202.165 317.953 201.981 317.915 201.768 317.915C201.551 317.915 201.366 317.965 201.211 318.066C201.056 318.162 200.93 318.296 200.833 318.466C200.741 318.636 200.671 318.838 200.624 319.07C200.582 319.298 200.561 319.546 200.561 319.813ZM213.814 320.196H215.549C215.515 320.765 215.358 321.27 215.079 321.711C214.804 322.152 214.419 322.497 213.924 322.745C213.432 322.992 212.84 323.116 212.148 323.116C211.606 323.116 211.12 323.023 210.69 322.837C210.261 322.648 209.893 322.377 209.588 322.025C209.286 321.673 209.055 321.247 208.897 320.748C208.738 320.248 208.659 319.689 208.659 319.07V318.484C208.659 317.864 208.74 317.305 208.903 316.806C209.069 316.303 209.305 315.875 209.611 315.523C209.92 315.171 210.29 314.9 210.72 314.71C211.149 314.521 211.629 314.426 212.159 314.426C212.864 314.426 213.458 314.554 213.941 314.809C214.429 315.064 214.806 315.417 215.073 315.866C215.344 316.314 215.507 316.825 215.561 317.398H213.819C213.8 317.058 213.732 316.769 213.616 316.533C213.5 316.293 213.324 316.113 213.088 315.993C212.856 315.869 212.546 315.807 212.159 315.807C211.869 315.807 211.615 315.862 211.399 315.97C211.182 316.078 211 316.243 210.853 316.463C210.706 316.684 210.596 316.963 210.522 317.299C210.452 317.632 210.418 318.023 210.418 318.472V319.07C210.418 319.507 210.451 319.892 210.516 320.225C210.582 320.554 210.683 320.833 210.818 321.061C210.958 321.286 211.136 321.456 211.352 321.572C211.573 321.684 211.838 321.74 212.148 321.74C212.511 321.74 212.811 321.682 213.047 321.566C213.283 321.45 213.463 321.278 213.587 321.049C213.715 320.821 213.79 320.537 213.814 320.196ZM220.304 321.496V316.719H221.976V323H220.402L220.304 321.496ZM220.489 320.208L220.983 320.196C220.983 320.614 220.935 321.003 220.838 321.363C220.741 321.719 220.596 322.029 220.402 322.292C220.209 322.551 219.965 322.754 219.671 322.901C219.377 323.045 219.03 323.116 218.632 323.116C218.326 323.116 218.044 323.074 217.784 322.988C217.529 322.899 217.308 322.762 217.123 322.576C216.941 322.387 216.797 322.145 216.693 321.851C216.592 321.553 216.542 321.195 216.542 320.777V316.719H218.214V320.788C218.214 320.974 218.235 321.131 218.278 321.258C218.324 321.386 218.388 321.491 218.469 321.572C218.551 321.653 218.645 321.711 218.754 321.746C218.866 321.781 218.99 321.798 219.125 321.798C219.47 321.798 219.741 321.729 219.938 321.589C220.139 321.45 220.281 321.26 220.362 321.02C220.447 320.777 220.489 320.506 220.489 320.208ZM224.925 317.926V325.415H223.253V316.719H224.803L224.925 317.926ZM228.901 319.79V319.912C228.901 320.368 228.847 320.792 228.739 321.183C228.634 321.574 228.479 321.914 228.274 322.205C228.069 322.491 227.814 322.716 227.508 322.878C227.206 323.037 226.858 323.116 226.463 323.116C226.08 323.116 225.747 323.039 225.464 322.884C225.182 322.729 224.944 322.512 224.75 322.234C224.561 321.951 224.408 321.624 224.292 321.253C224.176 320.881 224.087 320.483 224.025 320.057V319.738C224.087 319.281 224.176 318.863 224.292 318.484C224.408 318.1 224.561 317.77 224.75 317.491C224.944 317.208 225.18 316.99 225.459 316.835C225.741 316.68 226.072 316.603 226.451 316.603C226.85 316.603 227.2 316.678 227.502 316.829C227.808 316.98 228.063 317.197 228.268 317.479C228.477 317.762 228.634 318.099 228.739 318.489C228.847 318.88 228.901 319.314 228.901 319.79ZM227.223 319.912V319.79C227.223 319.523 227.2 319.277 227.154 319.053C227.111 318.824 227.042 318.625 226.945 318.455C226.852 318.284 226.728 318.153 226.573 318.06C226.422 317.963 226.238 317.915 226.022 317.915C225.793 317.915 225.598 317.951 225.435 318.025C225.277 318.099 225.147 318.205 225.047 318.344C224.946 318.484 224.87 318.65 224.82 318.844C224.77 319.037 224.739 319.256 224.727 319.5V320.306C224.747 320.593 224.801 320.85 224.89 321.079C224.979 321.303 225.116 321.481 225.302 321.613C225.488 321.744 225.732 321.81 226.033 321.81C226.254 321.81 226.44 321.762 226.591 321.665C226.742 321.564 226.864 321.427 226.956 321.253C227.053 321.079 227.121 320.877 227.16 320.649C227.202 320.421 227.223 320.175 227.223 319.912Z" fill="#F9E757"/>
</g>
<defs>
<clipPath id="clip0_4_350">
<rect width="264" height="419" rx="13.1194" fill="white"/>
</clipPath>
</defs>
</svg>
