<svg width="264" height="419" viewBox="0 0 264 419" fill="none" xmlns="http://www.w3.org/2000/svg">
<g clip-path="url(#clip0_4_350)">
<path fill-rule="evenodd" clip-rule="evenodd" d="M277.903 449.548C277.903 456.114 272.58 461.437 266.014 461.437H-2.97164C-9.53768 461.437 -14.8605 456.114 -14.8605 449.548L-14.8605 343.291C-14.8605 336.725 -9.53768 331.402 -2.97164 331.402H113.002C116.945 331.402 120.632 329.448 122.844 326.184L138.042 303.76C140.254 300.497 143.94 298.542 147.883 298.542H263.811C270.377 298.542 275.7 303.865 275.7 310.431V330.301C275.7 330.909 276.193 331.402 276.802 331.402V331.402C277.41 331.402 277.903 331.895 277.903 332.504V449.548Z" fill="#30985A"/>
<path d="M243 324.5C247.142 324.5 250.5 321.142 250.5 317C250.5 312.858 247.142 309.5 243 309.5C238.858 309.5 235.5 312.858 235.5 317C235.5 321.142 238.858 324.5 243 324.5Z" stroke="#F9E757" stroke-width="1.5" stroke-miterlimit="10"/>
<path d="M235.93 314.5H250.07" stroke="#F9E757" stroke-width="1.5" stroke-linecap="round" stroke-linejoin="round"/>
<path d="M235.93 319.5H250.07" stroke="#F9E757" stroke-width="1.5" stroke-linecap="round" stroke-linejoin="round"/>
<path d="M243 324.297C244.726 324.297 246.125 321.03 246.125 317C246.125 312.97 244.726 309.703 243 309.703C241.274 309.703 239.875 312.97 239.875 317C239.875 321.03 241.274 324.297 243 324.297Z" stroke="#F9E757" stroke-width="1.5" stroke-miterlimit="10"/>
<path d="M149.534 312.548V321H147.798V312.548H149.534ZM152.134 312.548V313.912H145.238V312.548H152.134ZM155.368 321.116C154.88 321.116 154.443 321.039 154.056 320.884C153.669 320.725 153.34 320.507 153.069 320.228C152.802 319.949 152.597 319.626 152.454 319.258C152.31 318.887 152.239 318.492 152.239 318.074V317.842C152.239 317.366 152.307 316.931 152.442 316.536C152.577 316.141 152.771 315.799 153.023 315.508C153.278 315.218 153.588 314.996 153.951 314.841C154.315 314.682 154.725 314.603 155.182 314.603C155.627 314.603 156.022 314.676 156.366 314.823C156.711 314.97 156.999 315.179 157.231 315.45C157.467 315.721 157.645 316.046 157.765 316.426C157.885 316.801 157.945 317.219 157.945 317.679V318.376H152.953V317.261H156.302V317.134C156.302 316.902 156.26 316.694 156.175 316.513C156.093 316.327 155.97 316.18 155.803 316.071C155.637 315.963 155.424 315.909 155.165 315.909C154.944 315.909 154.754 315.957 154.596 316.054C154.437 316.151 154.307 316.286 154.207 316.46C154.11 316.634 154.036 316.84 153.986 317.076C153.94 317.308 153.916 317.563 153.916 317.842V318.074C153.916 318.326 153.951 318.558 154.021 318.771C154.095 318.984 154.197 319.167 154.329 319.322C154.464 319.477 154.627 319.597 154.816 319.682C155.01 319.767 155.228 319.81 155.472 319.81C155.774 319.81 156.055 319.752 156.314 319.636C156.577 319.516 156.804 319.336 156.993 319.096L157.806 319.978C157.674 320.168 157.494 320.35 157.266 320.524C157.042 320.698 156.771 320.841 156.453 320.953C156.136 321.062 155.774 321.116 155.368 321.116ZM161.492 319.81C161.697 319.81 161.879 319.771 162.038 319.694C162.197 319.613 162.32 319.5 162.409 319.357C162.502 319.21 162.551 319.038 162.555 318.84H164.128C164.124 319.282 164.006 319.674 163.774 320.019C163.541 320.359 163.23 320.628 162.839 320.826C162.448 321.019 162.011 321.116 161.527 321.116C161.039 321.116 160.614 321.035 160.25 320.872C159.89 320.71 159.59 320.485 159.35 320.199C159.11 319.909 158.93 319.572 158.81 319.189C158.69 318.802 158.63 318.388 158.63 317.946V317.778C158.63 317.333 158.69 316.919 158.81 316.536C158.93 316.149 159.11 315.812 159.35 315.526C159.59 315.235 159.89 315.009 160.25 314.847C160.61 314.684 161.032 314.603 161.515 314.603C162.03 314.603 162.481 314.701 162.868 314.899C163.259 315.096 163.565 315.379 163.785 315.746C164.01 316.11 164.124 316.542 164.128 317.041H162.555C162.551 316.832 162.506 316.642 162.421 316.472C162.34 316.302 162.22 316.166 162.061 316.066C161.906 315.961 161.715 315.909 161.486 315.909C161.243 315.909 161.043 315.961 160.888 316.066C160.734 316.166 160.614 316.306 160.529 316.484C160.443 316.658 160.383 316.857 160.349 317.081C160.318 317.302 160.302 317.534 160.302 317.778V317.946C160.302 318.19 160.318 318.424 160.349 318.649C160.38 318.873 160.438 319.073 160.523 319.247C160.612 319.421 160.734 319.558 160.888 319.659C161.043 319.76 161.244 319.81 161.492 319.81ZM166.728 312.083V321H165.057V312.083H166.728ZM166.49 317.639H166.032C166.036 317.201 166.094 316.799 166.206 316.431C166.318 316.06 166.479 315.739 166.688 315.468C166.897 315.193 167.146 314.98 167.437 314.829C167.731 314.678 168.056 314.603 168.412 314.603C168.721 314.603 169.002 314.647 169.254 314.736C169.509 314.821 169.728 314.961 169.91 315.154C170.095 315.344 170.239 315.593 170.339 315.903C170.44 316.213 170.49 316.588 170.49 317.029V321H168.807V317.018C168.807 316.739 168.766 316.52 168.685 316.362C168.607 316.199 168.493 316.085 168.342 316.019C168.195 315.949 168.013 315.915 167.797 315.915C167.557 315.915 167.351 315.959 167.181 316.048C167.015 316.137 166.881 316.261 166.781 316.42C166.68 316.575 166.606 316.756 166.56 316.965C166.514 317.174 166.49 317.399 166.49 317.639ZM176.864 319.659L178.548 312.548H179.488L179.703 313.732L177.909 321H176.899L176.864 319.659ZM175.999 312.548L177.392 319.659L177.276 321H176.15L174.275 312.548H175.999ZM181.183 319.63L182.559 312.548H184.283L182.414 321H181.288L181.183 319.63ZM180.016 312.548L181.711 319.688L181.665 321H180.655L178.849 313.726L179.082 312.548H180.016ZM184.672 317.923V317.801C184.672 317.341 184.738 316.917 184.869 316.53C185.001 316.139 185.192 315.8 185.444 315.514C185.696 315.228 186.005 315.005 186.373 314.847C186.741 314.684 187.162 314.603 187.638 314.603C188.114 314.603 188.538 314.684 188.91 314.847C189.281 315.005 189.593 315.228 189.844 315.514C190.1 315.8 190.293 316.139 190.425 316.53C190.556 316.917 190.622 317.341 190.622 317.801V317.923C190.622 318.38 190.556 318.804 190.425 319.195C190.293 319.582 190.1 319.92 189.844 320.21C189.593 320.497 189.283 320.719 188.916 320.878C188.548 321.037 188.126 321.116 187.65 321.116C187.174 321.116 186.75 321.037 186.379 320.878C186.011 320.719 185.699 320.497 185.444 320.21C185.192 319.92 185.001 319.582 184.869 319.195C184.738 318.804 184.672 318.38 184.672 317.923ZM186.344 317.801V317.923C186.344 318.186 186.367 318.432 186.414 318.66C186.46 318.889 186.533 319.09 186.634 319.264C186.739 319.434 186.874 319.568 187.04 319.665C187.207 319.762 187.41 319.81 187.65 319.81C187.882 319.81 188.082 319.762 188.248 319.665C188.414 319.568 188.548 319.434 188.648 319.264C188.749 319.09 188.823 318.889 188.869 318.66C188.919 318.432 188.945 318.186 188.945 317.923V317.801C188.945 317.546 188.919 317.306 188.869 317.081C188.823 316.853 188.747 316.652 188.643 316.478C188.542 316.3 188.409 316.16 188.242 316.06C188.076 315.959 187.874 315.909 187.638 315.909C187.402 315.909 187.201 315.959 187.035 316.06C186.872 316.16 186.739 316.3 186.634 316.478C186.533 316.652 186.46 316.853 186.414 317.081C186.367 317.306 186.344 317.546 186.344 317.801ZM193.322 316.089V321H191.65V314.719H193.223L193.322 316.089ZM195.214 314.678L195.185 316.228C195.104 316.217 195.005 316.207 194.889 316.199C194.777 316.188 194.674 316.182 194.581 316.182C194.345 316.182 194.14 316.213 193.966 316.275C193.796 316.333 193.652 316.42 193.536 316.536C193.424 316.652 193.339 316.793 193.281 316.96C193.227 317.126 193.196 317.316 193.188 317.528L192.851 317.424C192.851 317.018 192.892 316.644 192.973 316.304C193.055 315.959 193.173 315.659 193.327 315.404C193.486 315.148 193.68 314.951 193.908 314.812C194.136 314.672 194.397 314.603 194.692 314.603C194.784 314.603 194.879 314.61 194.976 314.626C195.073 314.638 195.152 314.655 195.214 314.678ZM197.768 312.083V321H196.091V312.083H197.768ZM202.859 319.63V312.083H204.543V321H203.028L202.859 319.63ZM198.889 317.935V317.813C198.889 317.333 198.943 316.898 199.051 316.507C199.16 316.112 199.318 315.773 199.527 315.491C199.736 315.208 199.994 314.99 200.299 314.835C200.605 314.68 200.953 314.603 201.344 314.603C201.712 314.603 202.033 314.68 202.308 314.835C202.587 314.99 202.823 315.21 203.016 315.497C203.213 315.779 203.372 316.114 203.492 316.501C203.612 316.884 203.699 317.304 203.753 317.761V318.028C203.699 318.465 203.612 318.871 203.492 319.247C203.372 319.622 203.213 319.951 203.016 320.234C202.823 320.512 202.587 320.729 202.308 320.884C202.029 321.039 201.704 321.116 201.333 321.116C200.942 321.116 200.593 321.037 200.288 320.878C199.986 320.719 199.73 320.497 199.521 320.21C199.316 319.924 199.16 319.587 199.051 319.2C198.943 318.813 198.889 318.392 198.889 317.935ZM200.561 317.813V317.935C200.561 318.194 200.58 318.436 200.619 318.66C200.661 318.885 200.729 319.084 200.822 319.258C200.919 319.429 201.042 319.562 201.193 319.659C201.348 319.752 201.536 319.798 201.756 319.798C202.043 319.798 202.279 319.734 202.465 319.607C202.65 319.475 202.792 319.295 202.888 319.067C202.989 318.839 203.047 318.575 203.063 318.277V317.517C203.051 317.273 203.016 317.054 202.958 316.861C202.904 316.664 202.823 316.495 202.714 316.356C202.61 316.217 202.478 316.108 202.32 316.031C202.165 315.953 201.981 315.915 201.768 315.915C201.551 315.915 201.366 315.965 201.211 316.066C201.056 316.162 200.93 316.296 200.833 316.466C200.741 316.636 200.671 316.838 200.624 317.07C200.582 317.298 200.561 317.546 200.561 317.813ZM213.814 318.196H215.549C215.515 318.765 215.358 319.27 215.079 319.711C214.804 320.152 214.419 320.497 213.924 320.745C213.432 320.992 212.84 321.116 212.148 321.116C211.606 321.116 211.12 321.023 210.69 320.837C210.261 320.648 209.893 320.377 209.588 320.025C209.286 319.673 209.055 319.247 208.897 318.748C208.738 318.248 208.659 317.689 208.659 317.07V316.484C208.659 315.864 208.74 315.305 208.903 314.806C209.069 314.303 209.305 313.875 209.611 313.523C209.92 313.171 210.29 312.9 210.72 312.71C211.149 312.521 211.629 312.426 212.159 312.426C212.864 312.426 213.458 312.554 213.941 312.809C214.429 313.064 214.806 313.417 215.073 313.865C215.344 314.314 215.507 314.825 215.561 315.398H213.819C213.8 315.057 213.732 314.769 213.616 314.533C213.5 314.293 213.324 314.113 213.088 313.993C212.856 313.869 212.546 313.807 212.159 313.807C211.869 313.807 211.615 313.862 211.399 313.97C211.182 314.078 211 314.243 210.853 314.463C210.706 314.684 210.596 314.963 210.522 315.299C210.452 315.632 210.418 316.023 210.418 316.472V317.07C210.418 317.507 210.451 317.892 210.516 318.225C210.582 318.554 210.683 318.833 210.818 319.061C210.958 319.285 211.136 319.456 211.352 319.572C211.573 319.684 211.838 319.74 212.148 319.74C212.511 319.74 212.811 319.682 213.047 319.566C213.283 319.45 213.463 319.278 213.587 319.049C213.715 318.821 213.79 318.537 213.814 318.196ZM220.304 319.496V314.719H221.976V321H220.402L220.304 319.496ZM220.489 318.208L220.983 318.196C220.983 318.614 220.935 319.003 220.838 319.363C220.741 319.719 220.596 320.029 220.402 320.292C220.209 320.551 219.965 320.754 219.671 320.901C219.377 321.044 219.03 321.116 218.632 321.116C218.326 321.116 218.044 321.073 217.784 320.988C217.529 320.899 217.308 320.762 217.123 320.576C216.941 320.387 216.797 320.145 216.693 319.851C216.592 319.553 216.542 319.195 216.542 318.777V314.719H218.214V318.788C218.214 318.974 218.235 319.131 218.278 319.258C218.324 319.386 218.388 319.491 218.469 319.572C218.551 319.653 218.645 319.711 218.754 319.746C218.866 319.781 218.99 319.798 219.125 319.798C219.47 319.798 219.741 319.729 219.938 319.589C220.139 319.45 220.281 319.26 220.362 319.02C220.447 318.777 220.489 318.506 220.489 318.208ZM224.925 315.926V323.415H223.253V314.719H224.803L224.925 315.926ZM228.901 317.79V317.912C228.901 318.368 228.847 318.792 228.739 319.183C228.634 319.574 228.479 319.914 228.274 320.205C228.069 320.491 227.814 320.715 227.508 320.878C227.206 321.037 226.858 321.116 226.463 321.116C226.08 321.116 225.747 321.039 225.464 320.884C225.182 320.729 224.944 320.512 224.75 320.234C224.561 319.951 224.408 319.624 224.292 319.253C224.176 318.881 224.087 318.482 224.025 318.057V317.737C224.087 317.281 224.176 316.863 224.292 316.484C224.408 316.1 224.561 315.77 224.75 315.491C224.944 315.208 225.18 314.99 225.459 314.835C225.741 314.68 226.072 314.603 226.451 314.603C226.85 314.603 227.2 314.678 227.502 314.829C227.808 314.98 228.063 315.197 228.268 315.479C228.477 315.762 228.634 316.098 228.739 316.489C228.847 316.88 228.901 317.314 228.901 317.79ZM227.223 317.912V317.79C227.223 317.523 227.2 317.277 227.154 317.052C227.111 316.824 227.042 316.625 226.945 316.455C226.852 316.284 226.728 316.153 226.573 316.06C226.422 315.963 226.238 315.915 226.022 315.915C225.793 315.915 225.598 315.951 225.435 316.025C225.277 316.098 225.147 316.205 225.047 316.344C224.946 316.484 224.87 316.65 224.82 316.843C224.77 317.037 224.739 317.256 224.727 317.499V318.306C224.747 318.593 224.801 318.85 224.89 319.078C224.979 319.303 225.116 319.481 225.302 319.613C225.488 319.744 225.732 319.81 226.033 319.81C226.254 319.81 226.44 319.762 226.591 319.665C226.742 319.564 226.864 319.427 226.956 319.253C227.053 319.078 227.121 318.877 227.16 318.649C227.202 318.421 227.223 318.175 227.223 317.912Z" fill="#F9E757"/>
</g>
<defs>
<clipPath id="clip0_4_350">
<rect width="264" height="419" rx="13.1194" fill="white"/>
</clipPath>
</defs>
</svg>
